<?xml version="1.0" encoding="UTF-8" standalone="no"?>
<!-- Created with Inkscape (http://www.inkscape.org/) -->

<svg
   width="65pc"
   height="58pc"
   viewBox="0 0 275.16721 245.53382"
   version="1.1"
   id="svg5"
   inkscape:version="1.2.2 (b0a8486541, 2022-12-01)"
   sodipodi:docname="interests-2.svg"
   xml:space="preserve"
   xmlns:inkscape="http://www.inkscape.org/namespaces/inkscape"
   xmlns:sodipodi="http://sodipodi.sourceforge.net/DTD/sodipodi-0.dtd"
   xmlns="http://www.w3.org/2000/svg"
   xmlns:svg="http://www.w3.org/2000/svg"><sodipodi:namedview
     id="namedview7"
     pagecolor="#ffffff"
     bordercolor="#000000"
     borderopacity="0.25"
     inkscape:showpageshadow="2"
     inkscape:pageopacity="0.0"
     inkscape:pagecheckerboard="0"
     inkscape:deskcolor="#d1d1d1"
     inkscape:document-units="mm"
     showgrid="false"
     inkscape:zoom="0.50863398"
     inkscape:cx="169.08033"
     inkscape:cy="639.94937"
     inkscape:window-width="1860"
     inkscape:window-height="1172"
     inkscape:window-x="0"
     inkscape:window-y="0"
     inkscape:window-maximized="1"
     inkscape:current-layer="layer1" /><defs
     id="defs2"><linearGradient
       id="gradientFill-1"
       x1="0.7414425"
       x2="590.86261"
       y1="3.6658268"
       y2="593.78699"
       gradientUnits="userSpaceOnUse"
       spreadMethod="pad"
       gradientTransform="matrix(11.886937,0,0,7.9610169,-3647.6558,-3635.0126)"><stop
         offset="0"
         stop-color="rgb(203,206,208)"
         stop-opacity="1"
         id="stop1471" /><stop
         offset="1"
         stop-color="rgb(132,131,139)"
         stop-opacity="1"
         id="stop1473" /></linearGradient><linearGradient
       id="gradientFill-2"
       x1="301.02603"
       x2="703.0675"
       y1="151.4006"
       y2="553.44208"
       gradientUnits="userSpaceOnUse"
       spreadMethod="pad"
       gradientTransform="matrix(9.6301148,0,0,9.8266856,-3647.6558,-3635.0126)"><stop
         offset="0"
         stop-color="rgb(39,109,195)"
         stop-opacity="1"
         id="stop1476" /><stop
         offset="1"
         stop-color="rgb(22,92,170)"
         stop-opacity="1"
         id="stop1478" /></linearGradient></defs><g
     inkscape:label="Layer 1"
     inkscape:groupmode="layer"
     id="layer1"
     transform="translate(-9.7013511,-15.152511)"><g
       id="g1516"
       transform="translate(53.776655,74.060922)"><text
         xml:space="preserve"
         style="font-style:normal;font-variant:normal;font-weight:normal;font-stretch:normal;font-size:10.5833px;line-height:1;font-family:'Dancing Script';-inkscape-font-specification:'Dancing Script';text-align:end;letter-spacing:0.695854px;text-anchor:end;fill:#000000;stroke-width:0.285001;stroke-linecap:round;stroke-linejoin:round"
         x="43.957764"
         y="27.079868"
         id="text409"><tspan
           sodipodi:role="line"
           id="tspan407"
           style="font-style:normal;font-variant:normal;font-weight:normal;font-stretch:normal;font-size:10.5833px;font-family:Excalifont;-inkscape-font-specification:Excalifont;stroke-width:0.285"
           x="44.653618"
           y="27.079868">Chickens</tspan></text><g
         id="g600"
         transform="matrix(0.13144108,0,0,0.13144108,11.934252,0.9477861)"><path
           style="fill:#ffb903"
           d="m 34.57,46.68 c 0,0 -7.3,7.88 -13.09,12.39 -6.34,4.92 -18.37,10.13 -16.97,14.71 1.04,3.36 10.35,3.59 13.59,2.75 3.24,-0.84 17.18,8.73 17.18,8.73 0,0 65.32,-1.83 66.03,-2.53 0.7,-0.7 10,-6.76 12.53,-6.62 2.53,0.14 8.26,-1.38 9.43,-4.22 0.99,-2.39 -4.79,-5.21 -10.7,-9.08 C 102.91,56.49 99.9,51.2 99.9,51.2 c 0,0 5.73,-18.4 -6.66,-31.16 C 81.65,8.09 57.94,4.82 43.86,19.27 32.89,30.54 34.57,46.68 34.57,46.68 Z"
           id="path559" /><polygon
           style="fill:#b0b1b3"
           points="23.31,77.51 28.52,69.2 28.94,76.95 "
           id="polygon561" /><polygon
           style="fill:#b0b1b3"
           points="105.24,77.09 99.89,80.18 100.31,72.16 "
           id="polygon563" /><path
           style="fill:#dedede"
           d="m 65.82,122.56 c 27.17,-0.16 45.73,-23.11 46.6,-41.39 0.28,-5.91 -3.24,-5.07 -3.24,-5.07 l -5.35,-1.97 -7.88,6.19 c 0,0 -13.94,-10 -15.35,-10.28 -1.41,-0.28 -16.05,9.43 -16.05,9.43 0,0 -15.35,-9.85 -16.61,-9.85 -1.27,0 -13.51,9.15 -13.51,9.15 l -9.15,-6.34 -5.07,3.8 -3.66,1.27 c 0,0.01 0.99,45.34 49.27,45.06 z"
           id="path565" /><path
           style="fill:#fdfdfd"
           d="m 28.75,98.67 c 4.22,6.39 7.7,9.1 9.01,10.23 1.31,1.13 3.38,2.35 4.69,0.84 1.31,-1.5 -0.19,-3.1 -2.06,-4.97 -1.87,-1.87 -6.29,-6.57 -8.07,-9.2 -1.78,-2.63 -3.66,-7.98 -4.04,-9.1 -0.38,-1.13 -1.88,-3.38 -3.85,-2.44 -1.97,0.94 -1.31,3.38 -0.75,4.88 0.57,1.5 1.6,4.51 5.07,9.76 z"
           id="path567" /><ellipse
           transform="matrix(0.2893,-0.9572,0.9572,0.2893,-72.7613,126.7501)"
           style="fill:#fdfdfd"
           cx="48.98"
           cy="112.37"
           rx="2.5799999"
           ry="3.1400001"
           id="ellipse569" /><path
           style="fill:#ff8e01"
           d="m 31.1,66.01 c 2.14,1.57 -0.66,3.94 -1.69,5.07 -0.67,0.74 -5.44,6.66 -11.83,7.41 -6.13,0.72 -9.67,-1.12 -12.15,-3.38 -2.06,-1.88 -0.8,-2.93 0.7,-1.62 0.9,0.79 4.97,2.56 10.23,1.71 5.26,-0.85 8.82,-4.41 10.32,-6.01 0.88,-0.92 3.01,-4.21 4.42,-3.18 z"
           id="path571" /><path
           style="fill:#ff8e01"
           d="m 96.61,67.79 c -1.17,1.37 0.28,3.28 2.72,5.07 2.44,1.79 8.23,6.28 16.89,4.86 6.85,-1.13 7.98,-6.78 6.76,-6.26 -1.22,0.52 -3.85,3 -7.04,3.28 -3.19,0.28 -7.63,-0.24 -10.98,-2.44 -2.72,-1.78 -3.66,-2.72 -5.26,-3.94 -0.53,-0.41 -1.97,-1.88 -3.09,-0.57 z"
           id="path573" /><path
           style="fill:#2e3030"
           d="m 57.45,31.47 c -0.26,2.88 -1.83,5.77 -4.76,5.26 -3.12,-0.54 -4.01,-3.15 -3.76,-6.03 0.26,-2.88 2.48,-4.61 4.69,-4.41 2.21,0.19 4.08,2.3 3.83,5.18 z"
           id="path575" /><path
           style="fill:#2e3030"
           d="m 91.57,38.68 c -0.56,2.84 -2.37,5.32 -5.28,4.73 -3.11,-0.63 -3.78,-3.49 -2.94,-6.94 0.69,-2.81 3.18,-3.8 5.35,-3.38 2.18,0.43 3.42,2.75 2.87,5.59 z"
           id="path577" /><path
           style="fill:#ff8c00"
           d="m 71.38,34.71 c -0.64,-0.36 -11.12,8.31 -11.12,8.31 0,0 5.14,12.04 5.63,12.11 0.49,0.07 10.56,-8.24 10.56,-8.24 0,0 -4.57,-11.9 -5.07,-12.18 z"
           id="path579" /><path
           style="fill:#ff5f02"
           d="m 58.32,42.13 c -0.61,1.31 0.47,2.25 2.58,2.96 2.11,0.71 3.57,0.94 3.57,0.94 0,0 0.99,3.75 2.63,4.18 1.64,0.42 4.22,-2.39 4.22,-2.39 0,0 2.11,0.23 3,0.28 0.89,0.05 3.28,0.83 3.52,-0.94 0.28,-2.06 -2.35,-1.74 -3.24,-1.97 -0.89,-0.23 -2.96,-0.8 -2.96,-0.8 0,0 -0.56,-3.8 -2.02,-4.22 -1.45,-0.42 -4.18,2.91 -4.18,2.91 0,0 -2.53,-0.8 -3.28,-1.03 -0.75,-0.25 -3.24,-1.23 -3.84,0.08 z"
           id="path581" /></g></g></g></svg>
